<svg version="1.2" xmlns="http://www.w3.org/2000/svg" viewBox="0 0 512 512" width="512" height="512">
	<title>logo</title>
	<style>
		.s0 { fill: #4a205e } 
		.s1 { fill: #c2c6ea } 
		.s2 { fill: #fcbc00 } 
		.s3 { fill: #013262 } 
		.s4 { fill: #201e50 } 
		.s5 { fill: #ffffff } 
		.s6 { fill: #201e50;stroke: #000000;stroke-width: .5 } 
	</style>
	<g id="Pulpo Basico">
		<path id="Forma 1" class="s0" d="m68.9 381.3c0 0-0.8-8.3-3.9-5.3-19.4 5.9-29.3 0.3-31-5.2-8.8-27.8 15.2-29.5 15.2-30.7 0-10.8-8.8-22.6-8.8-22.6 0 0-17.4-16.1-27.4-40.5-16.7-40.6 12.6-50.8 18.1-51.7 5.5-1 31.8 1.9 28.9 19.7-2.7 16.6-18 12.8-18.4 12.5-4.3-2.1-1.7-8.3-1.7-8.3 0 0 4.1 7.8 7.9 2.8 8.2-10.8-5.5-12.2-5.5-12.2 0 0-16-2.1-14.1 23.2 0.9 12.5 25.6 32 25.3 28-0.7-12.6 6.7-37.1 10.3-42 3.5-4.9 6.6-12.3 3.4-14.5-3.2-2.1-3.6 3.5-3.6 3.5 0 0-1-1.1-1.2-1.3-1.7-2.2 1.7-5.2 1.7-5.2 0 0 7.4-3.4 8.7 5.9 0.8 5.7-7.3 24.7-7.3 24.7 0 0 13.4-4.4 17.5 5.9 6.5 16.5-12.6 17-12.6 17 0 0 13.6 5.2 17.6 0 18.5-23.9 21.4-43.4 21.4-43.4 0 0 1-24-21.7-25.8-9.6-0.2-9.2 3.8-9.2 3.8 0 0 1.1 4.7 4 2.5 2.9-2.3 0.8-7.3 3.6-2.3 4.7 8.6-5.9 8.5-7.9 8.4-2-0.2-11.9-7.1-1.7-14.7 31.3-15.4 46.5 24.5 46.5 24.5l9.1-22.2c0 0 18.5-35.5-11.1-48.8-23.8-10.7-33.3 6.3-38.1 11.5-6.7 7.2-2.4 16 2.2 19.3 4.6 3.4 20.6 5.9 21.9-4.8 1.3-10.7-6.5-5.1-6.5-5.1 0 0-2.7 3.6 2.4 2.5 0.2 0.8-0.2 1.7-1.9 2.6-4.7 2.4-4.6-5.8-4.6-5.8 0 0 4.4-8.1 13.6-4.2 9.2 3.9 3.6 17.6 3.6 17.6 0 0-4.6 8.3-24.6 10.4-20 2.1-24-23-24-23 0 0-4.7-41.8 51-46 55.7-4.2 48.5 61.7 47.3 70.1-1.2 8.3-16.3 63.1-37.3 80.9-21 17.8 34.2-29.6 40 22 5.8 51.6-43 41-43 41l-2.8 16z"/>
		<path id="Forma 2" class="s1" d="m121 297.1c47.6-5.3 39.8 29.5 27.6 44.7-9.2 11.4-25.7 14.1-25.7 14.1 54.2 27.2 66-97.3-1.9-58.8z"/>
		<path id="Forma 3" class="s1" d="m82.7 378.8c0 0-13.6-18.8-17.8-41.2-3.7-20.1-33-49-38.2-54.2-3.3-3.4-20.3-33.2-0.7-48.4 13.2-10.3 24.1 2.3 25.1 3.7 1.7 2.3-0.2 9.4-0.8 8.2-7.3-14.4-18.5-2.3-18.5-2.3 0 0-7.2 14.7 4.6 32.2 5.6 8.3 42.8 29.2 42.8 29.2 0 0-21.4-6.6-25-14-4.1-8.4 2-23.5 3.7-26.6 2.2-3.9 23.8-11.8 26.6 4.4 2.6 14.6-10.4 16.1-13.5 15.3-3.2-0.7-3.6-6.6-3.6-6.6 0 0 7.5 4.1 9.6-2.5 3.4-10.8-8.3-7.8-8.3-7.8 0 0-9.8 5.9-2.7 16.8 7.8 11.8 21.4 3.7 21.4 3.7 0 0 3.8-0.9 17.1-32.7 14.6-35.3-16.3-40.2-16.9-40.2-2.2 0.2 1.8-2 3.7-1.9 26 1.5 26.6 32 26.6 32 0 0 28.7-56.8 28.1-66.9-2.1-34.4-41.4-25.1-46.9-23.3-21.3 7.1-29.8 31.7-22.1 42.2 6 10.3 25.8 5.7 28.5 3.7 12.2-9.3 1.2-20 4.2-18.7 13 5.4 4.8 21.3 0.7 23.7-1.7 1-25.7 21.3-42.4-7.6-16.7-28.9 16.6-49.3 16.6-49.3 0 0 51.6-25.1 72.7 9.2 13.1 21.3 7.6 63-34.3 115.1-36 44.8-23.5 89.7-18 100.7 0.1 0.2-22.3 4.1-22.3 4.1z"/>
		<path id="Forma 4" class="s2" d="m128 339.1c-10.9-3.6-8.8-33 6.2-32.7 21 3.3 2 36.2-6.2 32.7z"/>
		<path id="Forma 4 copy" class="s2" d="m43.5 369.5c-7.1-2.4-5.7-21.6 4.1-21.4 13.7 2.2 1.3 23.7-4.1 21.4z"/>
		<path id="Forma 5" class="s3" d="m46.9 354.3c1.9-1.6 4.8 0.1 4.1-1.7-3.5-7-11.2 4.7-8 7.3 1.2 1 1.9-3.9 3.9-5.6z"/>
		<path id="Forma 6" class="s3" d="m132.3 317.5c2.5-2 7.8 0.3 8.1-3.5-1.8-8.8-20.9 5.6-15.5 9.5 2.6 1.9 4-3.4 7.4-6z"/>
		<path id="Forma 8" class="s4" d="m178 194h308v57h-308z"/>
		<path id="Forma 8 copy" class="s4" d="m178 260h308v57h-308z"/>
		<path id="REYNA ' S SEAFOOD" fill-rule="evenodd" class="s5" d="m219.3 203.2q6.8 0 10.7 3.1 3.8 3.1 3.8 8.6 0 3-1.6 5.2-1.6 2.2-4.7 3.6 3.5 1 5 3.4 1.6 2.4 1.6 6v2.1q0 1.3 0.5 2 0.5 0.7 1.7 0.9l1 0.1v4.8h-4.1q-3.9 0-5.5-2.1-1.6-2.1-1.6-5.4v-2.3q0-2.9-1.5-4.6-1.6-1.6-4.4-1.7h-6.5v10.5l4.2 0.8v4.8h-16.5v-4.8l4.3-0.8v-28.6l-4.3-0.8v-4.8zm-5.6 6.1v11.4h5.5q3.3 0 5-1.4 1.7-1.4 1.7-4.1 0-2.7-1.7-4.2-1.6-1.7-4.9-1.7zm52 10v6.2h-13.5v11.4h12.9l0.4-4.8h6v10.9h-31.5v-4.8l4.3-0.8v-28.6l-4.3-0.8v-4.8h31.5v10.9h-6.2l-0.3-4.8h-12.8v10zm24.6-16.1v4.8l-3.2 0.5 6.2 13h0.1l6.2-13-3.2-0.5v-4.8h15v4.8l-3.4 0.5-10.8 20.5v8.4l4.3 0.8v4.8h-16.5v-4.8l4.3-0.8v-8.8l-10.7-20.1-3.3-0.5v-4.8zm64.4 0v4.8l-4.3 0.8v34.2h-8l-16-26.8h-0.2v21.2l4.3 0.8v4.8h-16.5v-4.8l4.2-0.8v-28.6l-4.2-0.8v-4.8h12.2l16.1 26.8h0.1v-21.2l-4.2-0.8v-4.8zm-1.4 39.8v-4.8l2.9-0.4 12.1-34.6h8.2l12 34.6 2.8 0.4v4.8h-13.5v-4.8l2.7-0.5-1.7-5.4h-12.9l-1.8 5.4 2.8 0.5v4.8zm18.9-30.7l-4.5 14.1h9.2l-4.5-14.1zm43.1-12v7.4l-1.9 7.7h-3.5v-15.1zm48.5 7.5v8.1h-6l-1-5.5q-1-0.6-3-1.1-2-0.5-4.3-0.5-3.3 0-5.1 1.4-1.7 1.4-1.7 3.5 0 2.1 1.8 3.4 1.9 1.3 6.5 2.7 6.6 1.8 10 4.9 3.4 3 3.4 7.9 0 5.1-4.1 8-4 3-10.6 3-4.7 0-8.6-1.5-3.8-1.5-6.3-4.2v-8.3h6.2l0.8 5.7q1.2 0.9 3.3 1.6 2 0.6 4.6 0.6 3.3 0 5-1.3 1.7-1.3 1.7-3.6 0-2.3-1.7-3.7-1.6-1.4-5.6-2.6-7.1-2.1-10.8-4.9-3.6-2.8-3.6-7.7 0-4.8 4.1-7.9 4.1-3.1 10.3-3.2 4.6 0 8.4 1.4 3.8 1.4 6.3 3.8zm-229.7 67v8.1h-6l-1-5.5q-1.1-0.6-3.1-1.1-2-0.5-4.2-0.5-3.3 0-5.1 1.4-1.8 1.4-1.8 3.5 0 2.1 1.9 3.4 1.9 1.3 6.5 2.7 6.6 1.8 9.9 4.9 3.5 3 3.5 7.9 0 5.1-4.1 8-4 3-10.6 3-4.8 0-8.6-1.5-3.8-1.5-6.3-4.2v-8.3h6.1l0.9 5.7q1.2 0.9 3.2 1.6 2.1 0.6 4.7 0.6 3.2 0 4.9-1.3 1.8-1.3 1.8-3.6 0-2.3-1.7-3.7-1.6-1.4-5.7-2.6-7.1-2.1-10.7-4.9-3.6-2.8-3.6-7.7 0-4.8 4.1-7.9 4.1-3.1 10.3-3.2 4.6 0 8.3 1.4 3.8 1.4 6.4 3.8zm29.4 11.5v6.2h-13.5v11.4h12.9l0.3-4.8h6.1v10.9h-31.5v-4.8l4.3-0.8v-28.6l-4.3-0.8v-4.8h31.5v10.9h-6.2l-0.3-4.8h-12.8v10zm9.7 23.7v-4.8l2.8-0.4 12.1-34.6h8.2l12.1 34.6 2.8 0.4v4.8h-13.6v-4.8l2.8-0.5-1.8-5.4h-12.9l-1.7 5.4 2.7 0.5v4.8zm19-30.7l-4.5 14.1h9.1l-4.5-14.1zm21.7 30.7v-4.8l4.3-0.8v-28.6l-4.3-0.8v-4.8h31.7v10.9h-6.1l-0.3-4.8h-13v11h13.9v6.2h-13.9v10.9l4.2 0.8v4.8zm69.9-20.2v0.6q0 8.7-5 14.5-5 5.7-13.1 5.7-8 0-13-5.7-5-5.8-5-14.5v-0.6q0-8.7 5-14.4 4.9-5.8 13-5.8 8.1 0 13.1 5.8 5 5.7 5 14.4zm-7.9 0.6v-0.7q0-6.1-2.6-10-2.6-3.9-7.6-3.9-5 0-7.5 3.9-2.5 3.8-2.5 10v0.7q0 6.3 2.5 10.1 2.5 3.9 7.5 3.9 5.1 0 7.6-3.9 2.6-3.8 2.6-10.1zm47.5-0.6v0.6q0 8.7-5 14.5-5 5.7-13.1 5.7-8 0-13-5.7-5-5.8-5-14.5v-0.6q0-8.7 5-14.4 4.9-5.8 13-5.8 8.1 0 13.1 5.8 5 5.7 5 14.4zm-7.9 0.6v-0.7q0-6.1-2.6-10-2.6-3.9-7.6-3.9-5 0-7.5 3.9-2.5 3.8-2.5 10v0.7q0 6.3 2.5 10.1 2.5 3.9 7.5 3.9 5.1 0 7.6-3.9 2.6-3.8 2.6-10.1zm29-20.2q7.3 0 12.1 4.7 4.7 4.6 4.7 11.9v6.6q0 7.3-4.7 12-4.8 4.6-12.1 4.6h-17.9v-4.8l4.3-0.8v-28.6l-4.3-0.8v-4.8zm-0.4 6.1h-5.3v27.6h5.3q4.3 0 6.7-2.9 2.5-2.9 2.5-7.6v-6.6q0-4.7-2.5-7.6-2.4-2.9-6.7-2.9z"/>
	</g>
	<g id="tenta 1">
		<path id="Forma 7" class="s6" d="m88 363c-3.3 0-5.4-2.5-5.4-5.8 0-3.4 2-7.2 5.3-7.2 3.4 0 5.6 4.3 5.6 7.6 0 3.4-2.2 5.4-5.5 5.4z"/>
		<path id="Forma 7 copy 2" class="s6" d="m86 348c-2.9-0.3-3.9-3.5-3.9-6.6-0.5-3.4 0-7.7 3.3-8.1 3.6-0.5 5.2 4.3 5.1 7.8 0.3 3.9-1.7 6.4-4.5 6.9z"/>
		<path id="Forma 7 copy 3" class="s6" d="m76 360c-2.9-0.3-3.9-3.5-3.9-6.6-0.5-3.4 0-7.7 3.3-8.1 3.6-0.5 5.2 4.3 5.1 7.8 0.3 3.9-1.7 6.4-4.5 6.9z"/>
		<path id="Forma 7 copy 4" class="s6" d="m81.9 331.1c-2.5-0.3-3.3-3.4-3.1-6.2-0.1-3.1 1.3-6.9 3.2-7.6 4.3-0.6 5.7 3.8 5.1 7.2-0.1 4-2.5 6.3-5.2 6.6z"/>
		<path id="Forma 7 copy 86" class="s6" d="m75.1 342.3c-1.8-0.5-2.1-2.8-1.7-4.9 0.2-2.2 1.6-4.9 3.1-5.2 3.2-0.1 3.8 3.3 3 5.7-0.4 2.9-2.4 4.4-4.4 4.4z"/>
		<path id="Forma 7 copy 5" class="s6" d="m93.2 330.1c-2.7-0.4-3.6-3.7-3.4-6.8-0.1-3.3 1.4-7.5 3.5-8.2 4.7-0.7 6.2 4.1 5.6 7.8-0.1 4.3-2.7 6.9-5.7 7.2z"/>
		<path id="Forma 7 copy 18" class="s6" d="m147.2 231.1c-2.7-0.4-3.6-3.7-3.4-6.8-0.1-3.3 1.4-7.5 3.5-8.2 4.7-0.7 6.2 4.1 5.6 7.8-0.1 4.3-2.7 6.9-5.7 7.2z"/>
		<path id="Forma 7 copy 6" class="s6" d="m87.1 313.8c-2.4-0.4-2.9-3.6-2.6-6.3 0.1-2.6 1.4-5.6 2.9-6.3 3.4-0.8 4.8 2.5 4.5 5.6 0.2 4-2.2 6.7-4.8 7z"/>
		<path id="Forma 7 copy 7" class="s6" d="m97.6 309.4c-3-0.1-4.1-3-3.8-5.7 0-2.6 1.3-5.5 3-6 3.8-0.8 5.4 2 4.8 5.1 0 4-1.5 6.3-4 6.6z"/>
		<path id="Forma 7 copy 20" class="s6" d="m146.2 201.4c-2.7-0.1-3.7-2.8-3.4-5.2 0-2.3 1.1-5 2.7-5.5 3.5-0.7 4.9 1.9 4.4 4.7-0.1 3.6-1.4 5.8-3.7 6z"/>
		<path id="Forma 7 copy 21" class="s6" d="m155.7 199.4c-2.3-0.1-3.2-2.4-2.9-4.5 0-2 1-4.3 2.3-4.7 3-0.6 4.3 1.7 3.8 4 0 3.2-1.2 5-3.2 5.2z"/>
		<path id="Forma 7 copy 33" class="s6" d="m85.4 155c-1.4-1.7-0.3-3.7 1.3-4.8 1.4-1.2 3.6-1.9 4.7-1.2 2.2 1.7 1.4 3.9-0.5 5-2.2 1.9-4.2 2.2-5.5 1z"/>
		<path id="Forma 7 copy 34" class="s6" d="m91.9 157.1c-1.1-1.1-0.5-2.6 0.5-3.6 0.9-1 2.5-1.7 3.4-1.4 1.8 1.1 1.4 2.8 0.1 3.8-1.4 1.6-2.9 2-4 1.2z"/>
		<path id="Forma 7 copy 40" class="s6" d="m68.6 193.9c-1.5 0.6-2.6-0.6-3.1-1.9-0.5-1.3-0.5-3 0.2-3.6 1.7-1.2 3.1-0.2 3.5 1.4 0.8 2 0.6 3.5-0.6 4.1z"/>
		<path id="Forma 7 copy 43" class="s6" d="m75.2 205.2c-0.9 0.8-2 0.3-2.7-0.5-0.7-0.8-1.1-1.9-0.8-2.6 0.8-1.2 2.1-0.9 2.8 0.1 1.1 1.2 1.3 2.2 0.7 3z"/>
		<path id="Forma 7 copy 41" class="s6" d="m75.1 200.6c-2.1 0.2-3.5-1.5-4-2.7-0.6-1-0.9-2.4-0.3-3.1 1.2-1.9 2.6-1.2 3.3 0.6 1.6 2.4 2.4 4.5 1 5.2z"/>
		<path id="Forma 7 copy 36" class="s6" d="m71.2 167.5c-1.4-0.9-1-2.5-0.2-3.7 0.8-1.1 2.2-2.1 3.1-1.9 2 0.8 1.9 2.5 0.8 3.7-1.2 1.8-2.5 2.5-3.7 1.9z"/>
		<path id="Forma 7 copy 44" class="s6" d="m85.6 211.5c-0.1-1.6 1.4-2 2.8-1.6 1.3 0.2 2.9 0.2 3.6 0.9 0.5 1.9-1.5 2.6-3 2.4-1.9 0.2-3.2-0.5-3.4-1.7z"/>
		<path id="Forma 7 copy 45" class="s6" d="m89.6 207.5c-0.1-1.6 1.4-2 2.8-1.6 1.3 0.2 2.9 0.2 3.6 0.9 0.5 1.9-1.5 2.6-3 2.4-1.9 0.2-3.2-0.5-3.4-1.7z"/>
		<path id="Forma 7 copy 46" class="s6" d="m98.5 210.9c-0.6-1.2 0.4-2.2 1.7-2.4 1.2-0.3 2.5-0.9 3.3-0.6 1.1 1.4-0.2 2.7-1.5 3.1-1.6 0.9-2.8 0.8-3.5-0.1z"/>
		<path id="Forma 7 copy 47" class="s6" d="m101.5 206c-0.5-1 0.3-1.8 1.4-1.9 1-0.3 2.1-0.8 2.7-0.6 1 1.2-0.1 2.3-1.2 2.6-1.3 0.7-2.3 0.7-2.9-0.1z"/>
		<path id="Forma 7 copy 49" class="s6" d="m109.3 201.1c-0.8-0.6-0.5-1.5 0.2-2.2 0.6-0.6 1.3-1.5 1.9-1.6 1.2 0.5 0.8 1.8 0.2 2.6-0.7 1.1-1.5 1.5-2.3 1.2z"/>
		<path id="Forma 7 copy 50" class="s6" d="m113 196.2c-0.8-0.1-0.9-0.8-0.7-1.5 0.2-0.7 0.3-1.5 0.7-1.8 1-0.2 1.2 0.8 1.1 1.6 0 1-0.4 1.6-1.1 1.7z"/>
		<path id="Forma 7 copy 53" class="s6" d="m115.5 193.2c-0.6 0.1-0.9-0.5-0.9-1.1 0-0.6 0-1.3 0.2-1.6 0.8-0.4 1.2 0.4 1.3 1.1 0.1 0.8-0.1 1.4-0.6 1.6z"/>
		<path id="Forma 7 copy 52" class="s6" d="m112.9 191.1c-0.4 0.1-0.7-0.4-0.6-0.8 0-0.4-0.1-0.9 0.1-1.1 0.5-0.3 0.8 0.3 0.9 0.7 0.1 0.6 0 1-0.4 1.2z"/>
		<path id="Forma 7 copy 54" class="s6" d="m115 189.2c-0.3 0.3-0.7 0-0.8-0.4-0.2-0.4-0.5-0.8-0.5-1.1 0.4-0.4 1-0.1 1.2 0.3 0.4 0.5 0.4 0.9 0.1 1.2z"/>
		<path id="Forma 7 copy 51" class="s6" d="m114 200.2c-0.8-0.1-0.9-0.8-0.7-1.5 0.2-0.7 0.3-1.5 0.7-1.8 1-0.2 1.2 0.8 1.1 1.6 0 1-0.4 1.6-1.1 1.7z"/>
		<path id="Forma 7 copy 48" class="s6" d="m109 205.7c-0.9-0.8-0.3-1.8 0.6-2.3 0.8-0.6 1.7-1.5 2.4-1.4 1.3 0.7 0.6 2.1-0.3 2.8-0.9 1.1-1.9 1.4-2.7 0.9z"/>
		<path id="Forma 7 copy 35" class="s6" d="m79.9 163.9c-1.6-1.5-0.8-3.6 0.6-4.9 1.3-1.4 3.3-2.4 4.5-1.9 2.5 1.5 2 3.8 0.2 5.1-1.9 2.2-3.8 2.7-5.3 1.7z"/>
		<path id="Forma 7 copy 22" class="s6" d="m150.2 188.4c-2.4 0.1-3.4-2.1-3.4-4.2-0.1-2 0.6-4.4 1.9-4.9 2.9-0.9 4.4 1.2 4.2 3.7 0.2 3.1-0.8 5-2.7 5.4z"/>
		<path id="Forma 7 copy 23" class="s6" d="m159.1 185.2c-2.4 0.3-3.6-1.8-3.8-3.9-0.3-2 0.2-4.4 1.5-5.1 2.9-1.1 4.5 0.9 4.5 3.3 0.5 3.1-0.3 5.1-2.2 5.7z"/>
		<path id="Forma 7 copy 25" class="s6" d="m146.4 159.3c-1.3 1.9-4.5 1.2-6.5-0.1-1.8-1-3.2-3-2.8-4.3 1.2-2.6 3.9-2.2 6.2-0.7 3.6 1.2 4.5 3.1 3.1 5.1z"/>
		<path id="Forma 7 copy 26" class="s6" d="m155.5 165.3c-1.1 0.5-3.3-1-4.7-2.6-1.6-1.1-3-2.4-2.6-3.6 0.9-3.1 3.4-2.1 5.6 0.3 2.8 3.2 3 5.6 1.7 5.9z"/>
		<path id="Forma 7 copy 28" class="s6" d="m147.1 152.5c-0.9 0.7-3.3-0.1-5-1.1-1.7-0.7-3.5-1.8-3.6-3 0.4-2 2.9-1.8 5.4-0.4 3.4 2.1 4.3 3.9 3.2 4.5z"/>
		<path id="Forma 7 copy 29" class="s6" d="m117.9 150.5c-0.5 1-2.9 1.5-4.9 1.5-1.8 0.3-3.9 0.2-4.6-0.8-0.7-1.9 1.6-3 4.5-3 4 0 5.6 1.2 5 2.3z"/>
		<path id="Forma 7 copy 30" class="s6" d="m135.6 147.4c-0.7 0.8-3.1 0.7-5.1 0.2-1.8-0.2-3.8-0.8-4.3-2-0.1-2 2.4-2.4 5.2-1.8 3.8 1.1 5.1 2.7 4.2 3.6z"/>
		<path id="Forma 7 copy 37" class="s6" d="m78.7 167.2c0.6 1.1 0.1 3.6-1 5.1-0.7 1.5-1.9 3-3 3.1-1.7-0.5-1.5-2.9-0.2-5.3 1.9-3.2 3.6-4 4.2-2.9z"/>
		<path id="Forma 7 copy 31" class="s6" d="m122.9 145c-0.4 1-2.8 1.6-4.8 1.7-1.8 0.3-4 0.3-4.7-0.7-0.7-1.8 1.6-3 4.4-3.2 4-0.1 5.7 1.1 5.1 2.2z"/>
		<path id="Forma 7 copy 39" class="s6" d="m72.5 179.4c1.1 0.6 1.1 2.9 0.5 4.8-0.2 1.7-0.8 3.7-2 4-1.9 0.1-2.4-2.2-1.8-4.9 0.9-3.5 2.4-4.7 3.3-3.9z"/>
		<path id="Forma 7 copy 32" class="s6" d="m106.7 148.3c0 1.6-2.2 2.7-4.4 2.9-1.5 1-3.4 1.5-5.8 0.1-0.9-3.3 1.8-5.1 5.1-5.3 3.9-0.2 5.4 1 5.1 2.3z"/>
		<path id="Forma 7 copy 27" class="s6" d="m133.2 153.8c-1.5-0.2-3.4-0.2-5.1-0.6-1.8-0.2-3.7-0.6-4.6-1.8-2.5-2.6 1.6-3.2 5.6-2.9 5.2 1.3 5.8 4.8 4.1 5.3z"/>
		<path id="Forma 7 copy 24" class="s6" d="m154 176.8c-2.6 1.1-4.7-1-5.5-3.3-1-2.2-1.1-5.2 0.1-6.4 3-2.2 5.5-0.4 6.2 2.4 1.5 3.5 1.2 6.1-0.8 7.3z"/>
		<path id="Forma 7 copy 8" class="s6" d="m98.4 296.7c-4.4 0.2-5.4-3.6-4.5-7.2 0.4-3.3 1.9-6.9 3.9-7.6 4.9-1 7.4 2.8 6.7 7-0.2 5.4-2.5 7.9-6.1 7.8z"/>
		<path id="Forma 7 copy 9" class="s6" d="m108.5 282.7c-2.5-1.3-2.4-4.2-1.3-6.4 0.9-2.2 2.9-4.3 4.5-4.1 3.6 0.8 4.6 4.4 2.8 6.7-1.9 3.1-3.9 4.5-6 3.8z"/>
		<path id="Forma 7 copy 10" class="s6" d="m106.4 271c-3.6-1.3-3.2-4.6-1.3-7.3 1.4-2.6 3.8-5 5.6-4.9 4.3 0.7 5.1 4.6 3.2 7.8-1.9 4.4-4.6 5.6-7.5 4.4z"/>
		<path id="Forma 7 copy 11" class="s6" d="m118.1 261.3c-3.5-0.6-3-4.4-1.2-7.4 1.3-2.6 3.5-4.9 5.2-4.8 4.6 0.5 5.2 4.3 2.7 7.3-1.9 4.5-4.1 6-6.7 4.9z"/>
		<path id="Forma 7 copy 12" class="s6" d="m118.7 273c-2.7-1.7-2.4-4.6-1.3-6.8 0.9-2.2 3.2-4.2 5-4.3 5.1-0.4 5 4.6 2.1 7.5-1.9 3-3.7 4.4-5.8 3.6z"/>
		<path id="Forma 7 copy 13" class="s6" d="m129.6 256.1c-2.3-1.6-1.7-3.9-0.7-5.8 0.7-1.9 2.5-3.9 4.2-4.1 6.2-0.8 6 4.8 2.7 7.5-2.4 2.6-4.2 3.6-6.2 2.4z"/>
		<path id="Forma 7 copy 19" class="s6" d="m154.6 212.9c-2.7 0-3.5-2.2-3.7-4.3-0.6-2-0.2-4.7 1.1-5.8 4.7-4.1 7.6 0.6 6.5 4.6-0.5 3.5-1.5 5.4-3.9 5.5z"/>
		<path id="Forma 7 copy 14" class="s6" d="m126.1 244.3c-3.5-0.6-3-4.4-1.2-7.4 1.3-2.6 3.5-4.9 5.2-4.8 4.6 0.5 5.2 4.3 2.7 7.3-1.9 4.5-4.1 6-6.7 4.9z"/>
		<path id="Forma 7 copy 15" class="s6" d="m137.6 243.1c-2.3-1.6-1.7-3.9-0.7-5.8 0.7-1.9 2.5-3.9 4.2-4.1 6.2-0.8 6 4.8 2.7 7.5-2.4 2.6-4.2 3.6-6.2 2.4z"/>
		<path id="Forma 7 copy 42" class="s6" d="m77 202.9c0.8-1.1 2-0.8 3.1-0.3 1.1 0.3 2.5 1.1 3.1 2 3.8 4.5-1.9 2.5-4.4 1.2-1.9-0.9-2.5-1.8-1.8-2.9z"/>
		<path id="Forma 7 copy 16" class="s6" d="m134.2 229.6c-2.8-1.8-2.5-4.8-1.4-7.1 1-2.2 3.4-4.4 5.3-4.5 5.4-0.4 5.3 4.8 2.2 7.9-2 3.1-3.9 4.6-6.1 3.7z"/>
		<path id="Forma 7 copy 38" class="s6" d="m68.3 179.4c-2.2-0.4-2.9-2.3-2.7-4.1 0-1.7 0.9-3.6 2-4.2 3.3-1.7 4.6 1.6 3.5 4.3-0.4 2.5-1.2 3.9-2.8 4z"/>
		<path id="Forma 7 copy 17" class="s6" d="m140.8 215.6c-2.6-0.8-2.7-3.2-2.3-5.3 0.2-2.1 1.4-4.4 3-5.1 5.7-2.5 7 3 4.7 6.4-1.6 3.2-3.1 4.6-5.4 4z"/>
	</g>
	<g id="tenta2">
		<path id="Forma 7 copy 55" class="s6" d="m132.2 293.7c-0.2-1 0.8-1.6 1.7-1.8 0.9-0.1 2 0.1 2.4 0.6 0.5 1.3-0.3 2.1-1.5 2.1-1.3 0.3-2.3 0-2.6-0.9z"/>
		<path id="Forma 7 copy 56" class="s6" d="m137.3 294.9c0-1.2 1.2-1.7 2.2-1.7 1.1 0 2.3 0.5 2.5 1.2 0.4 1.5-0.7 2.2-2 2-1.6 0.1-2.6-0.5-2.7-1.5z"/>
		<path id="Forma 7 copy 70" class="s6" d="m130.8 356.5c-0.4-1.3 0.6-2.1 1.7-2.4 1.1-0.3 2.4-0.2 2.9 0.4 0.8 1.4-0.1 2.5-1.4 2.7-1.6 0.5-2.8 0.2-3.2-0.7z"/>
		<path id="Forma 7 copy 72" class="s6" d="m141 357c0.3-1.5 1.8-2.5 3.1-3.2 1.4-0.7 3.1-0.9 3.9-0.3 1.8 1.2-0.1 3.4-2.2 4.1-2.6 1-4.7 0.9-4.8-0.6z"/>
		<path id="Forma 7 copy 71" class="s6" d="m136.8 354.5c-0.6-1.5 0.6-2.7 1.9-3.2 1.3-0.5 3-0.6 3.7 0.1 1.2 1.7 0.2 3.1-1.4 3.5-2 0.9-3.4 0.7-4.2-0.4z"/>
		<path id="Forma 7 copy 63" class="s6" d="m154.9 301.3c1.2-0.8 2.5 0 3.2 1.2 0.7 1.1 1.1 2.6 0.6 3.4-1.4 1.4-2.8 0.7-3.5-0.7-1.2-1.6-1.3-3-0.3-3.9z"/>
		<path id="Forma 7 copy 68" class="s6" d="m150.3 344.2c1.5 1.3 0.4 3.7-1 5.1-1.3 1.3-3.6 2.4-4.9 1.9-2.8-1.5-0.9-3.2 1.1-4.4 1.9-2.2 3.5-3.3 4.8-2.6z"/>
		<path id="Forma 7 copy 64" class="s6" d="m159.5 310.8c1.7-0.5 2.9 0.9 3.2 2.4 0.5 1.5 0.4 3.4-0.5 4-2 1.2-3.4-0.1-3.7-2-0.7-2.2-0.3-3.8 1-4.4z"/>
		<path id="Forma 7 copy 58" class="s6" d="m144.1 295.8c0.3-1.2 1.6-1.3 2.5-0.9 1.2 0.2 3.3 1 3.8 2.3 0.1 2.5-2.6 2.4-4 1.3-1.5-0.8-2.2-1.6-2.3-2.7z"/>
		<path id="Forma 7 copy 66" class="s6" d="m165.6 323c1.3-0.2 1.7 1.3 1.4 2.6 0 1.8-0.7 5.1-2 5.6-2.8 0.3-1.9-2.9-1.6-4.8 0.3-1.9 1.1-2.8 2.2-3.4z"/>
		<path id="Forma 7 copy 57" class="s6" d="m143.1 292c0-1.3 1.1-1.6 2.4-1.4 1.4 0 3.5 0.1 3.9 0.8 0.5 1.4-0.8 2.4-3.1 1.9-1.9-0.3-3-0.4-3.2-1.3z"/>
		<path id="Forma 7 copy 65" class="s6" d="m165 314.8c1.3-0.1 1.7 0.9 1.7 2.3 0.2 1.4 0.3 3.6-0.4 4-1.4 0.8-2.5-0.5-2.3-2.9 0.2-2 0.1-3.1 1-3.4z"/>
		<path id="Forma 7 copy 59" class="s6" d="m158.7 299.7c-0.9 0.5-2.8-0.6-4.2-1.8-1.4-0.7-2.7-1.7-2.5-2.7 0.4-2.7 2.6-2.1 4.7-0.3 2.7 2.4 3.1 4.4 2 4.8z"/>
		<path id="Forma 7 copy 67" class="s6" d="m158.3 343.7c-0.9-1.4 0.5-4.8 1.8-7.1 0.7-2.2 1.6-4.3 2.6-4.2 2.5 0.4 2.1 2.9 0.7 6.7-1.9 4.8-4.3 6.2-5.1 4.6z"/>
		<path id="Forma 7 copy 60" class="s6" d="m164.8 311.9c-1.1 0.1-2.6-2-3.3-3.8-1-1.5-1.8-3.1-1.2-4 1.8-2.5 3.7-0.7 4.9 2 1.5 3.8 0.9 5.9-0.4 5.8z"/>
		<path id="Forma 7 copy 61" class="s6" d="m151.7 342.9c-0.9-1.2 0.2-4.2 1.5-6.4 0.7-2.1 1.7-4.1 3.2-4.1 3.9-0.1 3.5 3.2 1.6 6.5-2.7 4.3-5.4 5.4-6.3 4z"/>
		<path id="Forma 7 copy 62" class="s6" d="m158.4 329.2c-0.9-0.7-0.8-3-0.3-4.9 0-1.6 0.3-3.3 1.3-3.6 2.7-0.9 3.2 1.5 2.6 4.2-1 3.7-2.7 5-3.6 4.3z"/>
		<path id="Forma 7 copy 69" class="s6" d="m149.9 353c-0.6-1 0.7-3.3 2.1-4.8 0.9-1.6 2-3 3.2-2.8 3.1 0.5 2.3 3.1 0.3 5.4-2.9 3-5.1 3.4-5.6 2.2z"/>
	</g>
	<g id="tenta 3">
		<path id="Forma 7 copy 73" class="s6" d="m66.7 328.9c-2.6 0.9-5.9-4.3-7.7-8.3-2-2.4-2.9-5.7-0.7-7.7 4.1-2.2 7.4-0.2 9.2 4.7 2.8 7.4 1.9 11-0.8 11.3z"/>
		<path id="Forma 7 copy 74" class="s6" d="m72.6 315c-2.4 1.2-5.1-1.2-6.6-3.8-1.6-2.4-2.5-5.8-1.7-7.3 2.2-2.6 5.3-0.3 7 2.6 2.7 3.4 3.2 6.7 1.3 8.5z"/>
		<path id="Forma 7 copy 75" class="s6" d="m60.1 309.2c-2.3 1.6-5.3-0.6-7.3-3.1-1.9-2.3-3.4-5.8-2.7-7.5 2.2-3.5 6-1.9 8.2 0.9 3.5 3.2 3.7 7.3 1.8 9.7z"/>
		<path id="Forma 7 copy 87" class="s6" d="m21.2 245.6c-1.2-1.1-0.5-3.3 0.6-5 1-1.6 3-3.2 4.3-3.2 3 0.5 1.6 3.1-0.2 4.7-1.7 2.1-3.2 4-4.7 3.5z"/>
		<path id="Forma 7 copy 91" class="s6" d="m28.6 243.8c-0.9-1.2 0.2-2.9 1.4-4.1 1.2-1.2 3.2-2.2 4.4-1.9 2.4 1.1 0.7 3-1.2 4-1.8 1.4-3.5 2.7-4.6 2z"/>
		<path id="Forma 7 copy 92" class="s6" d="m37.5 238.3c0-1 1.2-1.5 2.4-1.7 1-0.2 2.5 0.1 3 0.7 0.9 1.5-0.8 1.9-2.1 1.7-1.6 0.1-3 0.1-3.3-0.7z"/>
		<path id="Forma 7 copy 88" class="s6" d="m29.3 236.1c-0.3-1.5 1.5-2.6 3.2-3.1 1.5-0.5 3.8-0.5 5.1 0.1 2.3 2-0.6 2.6-2.9 2.8-2.5 0.6-4.7 1.3-5.4 0.2z"/>
		<path id="Forma 7 copy 89" class="s6" d="m40.7 233.8c0.6-0.9 2-0.6 3-0.1 1.1 0.4 2.2 1.4 2.6 2.4 0.3 2-1.4 1-2.7 0.1-1.6-0.8-3-1.5-2.9-2.4z"/>
		<path id="Forma 7 copy 90" class="s6" d="m47.8 239.6c0.7-0.2 1.4 0.1 1.9 0.6 0.7 0.6 0.9 1.7 0.6 2.3-0.7 1.1-1.6-0.3-2.2-1.3-0.6-0.7-0.6-1.2-0.3-1.6z"/>
		<path id="Forma 7 copy 77" class="s6" d="m51.1 294.3c-1.4 1.2-3.8 0.1-5.4-1.3-1.6-1.3-3-3.4-2.7-4.6 1.1-2.4 3.8-1.4 5.4 0.6 2.8 1.6 3.7 3.7 2.7 5.3z"/>
		<path id="Forma 7 copy 78" class="s6" d="m36.5 288c-1.2 1-3.1 0.1-4.5-1.2-1.6-1.3-3.1-3.5-2.8-4.5 1-2 3.8-0.6 5.5 1.2 2.1 1.4 2.7 3.3 1.8 4.5z"/>
		<path id="Forma 7 copy 79" class="s6" d="m42.5 286.9c-1.1 0.9-2.7 0.1-4-1-1.4-1.2-2.8-3.2-2.5-4 0.9-1.8 3.4-0.5 4.9 1.1 1.9 1.2 2.3 2.8 1.6 3.9z"/>
		<path id="Forma 7 copy 76" class="s6" d="m46.2 298.1c-1.5 1.1-3.9-0.4-5.6-2.1-1.5-1.4-2.8-3.7-2.6-5 0.9-2.3 3.4-0.1 5.2 1.7 2.5 1.9 3.7 4.1 3 5.4z"/>
		<path id="Forma 7 copy 80" class="s6" d="m28.2 280.6c-1.3 0.3-2.5-0.9-3.4-2.4-1.3-1.9-2.2-4.1-1.4-4.6 1.6-1.2 3.6 1.4 4.5 3.5 1.4 1.4 1.3 2.8 0.3 3.5z"/>
		<path id="Forma 7 copy 81" class="s6" d="m35.4 280.5c-1.4 0.7-3-0.6-4.1-2.1-1.3-1.7-2.4-4.1-1.9-5 1.4-1.8 3.9 0.2 5.2 2.3 1.8 1.8 1.9 3.7 0.8 4.8z"/>
		<path id="Forma 7 copy 82" class="s6" d="m24.7 271.3c-1.7 0.4-3.1-1.5-3.8-3.5-0.9-2.2-1.3-5.2-0.5-6 2-1.5 4.1 1.5 4.8 4.1 1.4 2.5 1 4.6-0.5 5.4z"/>
		<path id="Forma 7 copy 84" class="s6" d="m20 259.4c-1.1-0.1-1.8-2.5-2-4.8 0-2.4 1.2-5.1 2.4-5.8 1.6 0.3 1.3 3.5 1.3 5.9 0.4 2.8-0.9 4.5-1.7 4.7z"/>
		<path id="Forma 7 copy 85" class="s6" d="m26.4 259.6c-1.2-0.2-2.6-3.3-2.7-6.9 0.5-3.5 2.2-6.2 4-6.7 2 0.6 0.5 4.4 0.1 7.6 0.1 3.6-0.6 5.7-1.4 6z"/>
		<path id="Forma 7 copy 83" class="s6" d="m30.2 271.6c-1.6 0.3-2.8-1.6-3.4-3.6-0.9-2.4-1.5-6.2-0.6-6.7 2.2-0.8 3.7 3 4.1 5.8 1 2.6 1.2 4-0.1 4.5z"/>
	</g>
	<g id="tenta 4">
		<path id="Forma 7 copy 93" class="s6" d="m85.4 293.1c0 1.7-2.8 2.4-5.7 2.8-2.7 0.5-5.6-0.3-6.6-1.9 0-1.9 3.7-1.7 6.6-1.8 3-0.8 5.1-0.7 5.7 0.9z"/>
		<path id="Forma 7 copy 94" class="s6" d="m82.1 298.3c0.8 2.1-1.8 3.3-4 3.6-1.9 0.3-4.6-0.1-6-1-2.7-2.5 0.8-4 3.9-3 2.9-0.4 4.8-0.7 6.1 0.4z"/>
		<path id="Forma 7 copy 95" class="s6" d="m69.9 298.6c-1.1 1.1-3.1 0.4-4.6-0.7-1.8-1.1-3.6-3.1-3.4-4.1 0.8-2.2 3.8-1 5.6 0.6 2.3 1.1 3.1 2.8 2.4 4.2z"/>
		<path id="Forma 7 copy 98" class="s6" d="m62.9 286.1c-1.7-0.1-2.9-1.8-3.4-3.7-0.6-1.8-0.8-4 0.3-5.1 2.2-1.3 2.5 1.7 3 4.4 1.9 2.6 1.8 4 0.1 4.4z"/>
		<path id="Forma 7 copy 102" class="s6" d="m61.6 265.7c-0.1-1.3 1.2-2.4 2.5-2.9 1.4-0.6 3-0.9 4-0.1 1.2 1.5-1.1 2-3.1 2.6-1.9 1.7-3 1.7-3.4 0.4z"/>
		<path id="Forma 7 copy 103" class="s6" d="m68.6 265.9c0.5-1.2 2.1-1.5 3.6-1.3 1.5 0.2 3.1 0.6 3.5 1.8 0.3 1.9-2 1.2-4 0.8-2.4 0.6-3.4 0-3.1-1.3z"/>
		<path id="Forma 7 copy 108" class="s6" d="m78.1 267.7c0.9 0.1 1.5 1.2 1.6 2.2 0.3 1.1 0.3 2.3-0.4 2.8-1.3 0.6-1.3-1.1-1.4-2.6-0.9-1.5-0.7-2.3 0.2-2.4z"/>
		<path id="Forma 7 copy 109" class="s6" d="m78.9 274.1c0.5 0.3 0.6 1.1 0.5 1.8-0.1 0.7-0.4 1.4-0.9 1.6-1 0.1-0.6-0.9-0.3-1.9-0.2-1.2 0.1-1.6 0.7-1.5z"/>
		<path id="Forma 7 copy 110" class="s6" d="m81.4 278.7c0.4 0.5 0.2 1.3-0.2 1.8-0.4 0.7-0.9 1.2-1.5 1.1-0.9-0.2-0.1-1.1 0.5-1.8 0.3-1.2 0.7-1.5 1.2-1.1z"/>
		<path id="Forma 7 copy 104" class="s6" d="m70.7 261.9c0.7-1.1 2.3-1.3 3.7-0.9 1.5 0.3 3 0.9 3.3 2.1 0.2 2-2 1-4 0.4-2.5 0.3-3.4-0.3-3-1.6z"/>
		<path id="Forma 7 copy 99" class="s6" d="m55.2 283.8c-1.2-1.2-1.4-3.5-1-5.1 0.4-1.8 1.1-3.4 2.4-3.7 2 0 1.3 2.6 0.9 5.6 0.3 3.2-0.8 3.9-2.3 3.2z"/>
		<path id="Forma 7 copy 105" class="s6" d="m80.1 263.9c1.1 0.3 1.8 1.4 2.1 2.5 0.3 1 0.4 2.1-0.2 2.7-1 0.6-1.5-1-2.2-2.8-1.1-1.6-0.7-2.4 0.3-2.4z"/>
		<path id="Forma 7 copy 106" class="s6" d="m83.5 271.6c0.8 0.8 0.9 2.2 0.6 3.2-0.3 1.1-0.8 2.1-1.5 2.3-1.3 0-0.9-1.7-0.5-3.5-0.2-2 0.5-2.4 1.4-2z"/>
		<path id="Forma 7 copy 107" class="s6" d="m78.3 279.4c-0.1 1.1-1.2 2-2.2 2.4-1 0.5-2 0.8-2.6 0.3-0.8-1 0.7-1.7 2.4-2.6 1.4-1.4 2.2-1.1 2.4-0.1z"/>
		<path id="Forma 7 copy 101" class="s6" d="m60.4 274.7c-0.6-1.5 0.2-3.5 1.3-4.8 1.1-1.4 2.4-2.5 3.6-2.2 1.7 0.8 0.1 2.9-1.6 5.2-1.1 2.9-2.3 3-3.3 1.8z"/>
		<path id="Forma 7 copy 100" class="s6" d="m57.2 273.6c-0.5-0.8 0.1-2.9 1-4.5 0.7-1.9 1.8-2.8 2.4-1.5 0.3 1.9-0.7 2.6-1.6 4.4-0.8 1.7-1.2 1.9-1.8 1.6z"/>
		<path id="Forma 7 copy 97" class="s6" d="m60.4 292.5c-0.9 1-2.7 0-4.1-1.3-1.3-1.3-2.4-3.8-2-5.1 1.2-2.8 2.9 0.1 4 2.1 2.1 1.5 2.8 3.1 2.1 4.3z"/>
		<path id="Forma 7 copy 96" class="s6" d="m72.2 293.3c-1.2 0.9-3.3 0.2-4.9-0.8-1.8-1.3-3.5-3.5-3.3-4.6 0.9-2.2 3.4 0.1 5 2.1 2.7 0.9 3.8 2.1 3.2 3.3z"/>
	</g>
	<g id="tenta 5">
		<path id="Forma 7 copy 111" class="s6" d="m110.7 246.4c0.8 1.2 0.5 3.1-0.3 4.4-0.6 1.3-1.6 2.5-2.6 2.5-1.7-0.4-0.6-2.5 0.4-4.8 0.5-2.7 1.5-3 2.5-2.1z"/>
		<path id="Forma 7 copy 112" class="s6" d="m116 241.9c0.9 1.1 0.7 3 0.1 4.3-0.5 1.4-1.3 2.6-2.3 2.7-1.7-0.2-0.8-2.3-0.1-4.7 0.2-2.7 1.2-3.1 2.3-2.3z"/>
		<path id="Forma 7 copy 113" class="s6" d="m113 237.9c0.9 1.1 0.7 3 0.1 4.3-0.5 1.4-1.3 2.6-2.3 2.7-1.7-0.2-0.8-2.3-0.1-4.7 0.2-2.7 1.2-3.1 2.3-2.3z"/>
		<path id="Forma 7 copy 116" class="s6" d="m105.8 223.9c1.2 0.1 2.2 1.3 2.7 2.4 0.5 1.1 0.8 2.3 0.3 3-1.1 0.9-1.9-0.8-2.9-2.7-1.5-1.6-1.2-2.5-0.1-2.7z"/>
		<path id="Forma 7 copy 117" class="s6" d="m109.5 225c1.1 0.1 2 1.1 2.4 2.1 0.4 1.1 0.7 2.1 0.2 2.7-0.9 0.8-1.6-0.7-2.3-2.5-1-1.7-1.1-2.2-0.3-2.3z"/>
		<path id="Forma 7 copy 118" class="s6" d="m100.3 219.7c0.9-0.4 2.2 0.2 3 0.9 0.8 0.7 1.5 1.6 1.4 2.4-0.5 1.1-1.8-0.1-3.2-1.4-1.6-1-1.9-1.4-1.2-1.9z"/>
		<path id="Forma 7 copy 120" class="s6" d="m93.8 216.2c0.8-0.6 2.3-0.4 3.2 0.1 1.1 0.5 2 1.2 2 2-0.2 1.2-1.7 0.4-3.5-0.5-1.9-0.7-2.3-1-1.7-1.6z"/>
		<path id="Forma 7 copy 121" class="s6" d="m100.2 217.3c0.6-0.5 1.6-0.3 2.3 0.1 0.8 0.3 1.5 0.8 1.5 1.4-0.1 0.9-1.3 0.3-2.6-0.3-1.3-0.5-1.6-0.8-1.2-1.2z"/>
		<path id="Forma 7 copy 119" class="s6" d="m104.3 219.7c0.9-0.4 2.2 0.2 3 0.9 0.8 0.7 1.5 1.6 1.4 2.4-0.5 1.1-1.8-0.1-3.2-1.4-1.6-1-1.9-1.4-1.2-1.9z"/>
		<path id="Forma 7 copy 114" class="s6" d="m109 231c0.9 0.5 1.5 1.6 1.7 2.6 0.2 1.1 0.1 2.4-0.5 2.9-1.1 0.5-1.5-1.1-1.9-3.1-0.6-2-0.2-2.4 0.7-2.4z"/>
		<path id="Forma 7 copy 115" class="s6" d="m113 231c0.9 0.5 1.5 1.6 1.7 2.6 0.2 1.1 0.1 2.4-0.5 2.9-1.1 0.5-1.5-1.1-1.9-3.1-0.6-2-0.2-2.4 0.7-2.4z"/>
	</g>
</svg>